<?xml version="1.0" standalone="no"?>
<!DOCTYPE svg PUBLIC "-//W3C//DTD SVG 20010904//EN"
 "http://www.w3.org/TR/2001/REC-SVG-20010904/DTD/svg10.dtd">
<svg version="1.0" xmlns="http://www.w3.org/2000/svg"
 width="700.000000pt" height="700.000000pt" viewBox="0 0 700.000000 700.000000"
 preserveAspectRatio="xMidYMid meet">
<metadata>
Created by potrace 1.11, written by Peter Selinger 2001-2013
</metadata>
<g transform="translate(0.000000,700.000000) scale(0.100000,-0.100000)"
fill="#000000" stroke="none">
<path d="M875 5419 c-67 -20 -140 -81 -171 -141 -38 -72 -40 -117 -39 -770 0
-351 -2 -639 -5 -639 -3 -1 -111 -2 -240 -4 -134 -1 -246 -7 -260 -13 -56 -23
-108 -72 -133 -124 l-26 -53 -1 -950 c0 -663 3 -962 11 -990 15 -53 70 -120
122 -148 42 -22 43 -22 597 -23 425 -1 565 2 598 11 58 18 106 56 139 113 26
43 28 56 31 177 l4 131 385 0 c418 -1 395 2 407 -57 12 -64 59 -235 71 -258 7
-14 28 -40 47 -57 69 -64 17 -61 1078 -62 531 0 981 4 1000 9 44 11 96 48 126
91 13 19 39 96 62 183 l39 150 64 0 64 0 1 -120 c1 -97 5 -129 21 -165 24 -54
68 -100 120 -126 36 -18 76 -19 918 -21 967 -2 933 -4 1009 59 21 17 49 54 62
82 l24 51 0 1241 0 1240 -25 51 c-30 59 -63 91 -125 118 -40 18 -68 20 -270
21 -124 1 -228 2 -231 3 -4 1 -6 166 -6 369 0 392 -4 425 -50 496 -35 54 -69
83 -133 114 l-55 27 -2585 2 c-2501 1 -2587 0 -2645 -18z"/>
</g>
</svg>
